<svg xmlns="http://www.w3.org/2000/svg" viewBox="0 0 1672 941" preserveAspectRatio="xMidYMid slice">
    <defs>
      <linearGradient id="bg-04" x1="0%" y1="0%" x2="100%" y2="100%">
        <stop offset="0%" stop-color="#030305" />
        <stop offset="50%" stop-color="#07090e" />
        <stop offset="100%" stop-color="#020304" />
      </linearGradient>
      <radialGradient id="glow-04" cx="65%" cy="45%" r="60%">
        <stop offset="0%" stop-color="#9fb5b7" stop-opacity="0.22" />
        <stop offset="70%" stop-color="#050506" stop-opacity="0" />
      </radialGradient>
      <pattern id="grid-04" width="60" height="60" patternUnits="userSpaceOnUse">
        <path d="M 60 0 L 0 0 0 60" fill="none" stroke="rgba(242,241,237,0.035)" stroke-width="1"/>
      </pattern>
    </defs>
    <rect width="1672" height="941" fill="url(#bg-04)" />
    <rect width="1672" height="941" fill="url(#grid-04)" />
    <rect width="1672" height="941" fill="url(#glow-04)" />

    
      <!-- Global Cloud Infrastructure -->
      <g stroke="#9fb5b7" stroke-opacity="0.3" stroke-width="1">
        <ellipse cx="880" cy="460" rx="380" ry="180" fill="none"/>
        <ellipse cx="880" cy="460" rx="440" ry="240" fill="none" stroke-dasharray="4 8"/>
        <line x1="440" y1="460" x2="1320" y2="460"/>
        <line x1="880" y1="220" x2="880" y2="700"/>
        <circle cx="1240" cy="460" r="8" fill="#070a0e" stroke="#9fb5b7" stroke-width="2"/><circle cx="1240" cy="460" r="3" fill="#f2f1ed"/><circle cx="1134.5584412271571" cy="573.1370849898476" r="8" fill="#070a0e" stroke="#9fb5b7" stroke-width="2"/><circle cx="1134.5584412271571" cy="573.1370849898476" r="3" fill="#f2f1ed"/><circle cx="880" cy="620" r="8" fill="#070a0e" stroke="#9fb5b7" stroke-width="2"/><circle cx="880" cy="620" r="3" fill="#f2f1ed"/><circle cx="625.4415587728429" cy="573.1370849898476" r="8" fill="#070a0e" stroke="#9fb5b7" stroke-width="2"/><circle cx="625.4415587728429" cy="573.1370849898476" r="3" fill="#f2f1ed"/><circle cx="520" cy="460" r="8" fill="#070a0e" stroke="#9fb5b7" stroke-width="2"/><circle cx="520" cy="460" r="3" fill="#f2f1ed"/><circle cx="625.4415587728429" cy="346.8629150101524" r="8" fill="#070a0e" stroke="#9fb5b7" stroke-width="2"/><circle cx="625.4415587728429" cy="346.8629150101524" r="3" fill="#f2f1ed"/><circle cx="879.9999999999999" cy="300" r="8" fill="#070a0e" stroke="#9fb5b7" stroke-width="2"/><circle cx="879.9999999999999" cy="300" r="3" fill="#f2f1ed"/><circle cx="1134.5584412271571" cy="346.8629150101524" r="8" fill="#070a0e" stroke="#9fb5b7" stroke-width="2"/><circle cx="1134.5584412271571" cy="346.8629150101524" r="3" fill="#f2f1ed"/>
      </g>
      <text x="880" y="465" fill="#f2f1ed" font-family="monospace" font-size="14" font-weight="bold" text-anchor="middle" letter-spacing="3">GLOBAL BACKBONE // MULTI-REGION K8S</text>
    

    <!-- UI Telemetry Overlays -->
    <g font-family="monospace" font-size="11" fill="rgba(242,241,237,0.5)" letter-spacing="2">
      <text x="70" y="80">FAROOQ // CORE CHAPTER 04</text>
      <text x="70" y="105" fill="#f2f1ed" font-size="16" font-weight="bold">GLOBAL CLOUD INFRASTRUCTURE</text>
      <text x="70" y="130" fill="#9fb5b7">ZERO-TRUST ENTERPRISE TOPOLOGIES, MULTI-CLOUD KUBERNETES</text>
      
      <text x="1602" y="80" text-anchor="end">STATUS: OPERATIONAL</text>
      <text x="1602" y="105" text-anchor="end" fill="#9fb5b7">LATENCY: 1.2ms (P99)</text>
      <text x="1602" y="130" text-anchor="end">AVAILABILITY: 99.999%</text>

      <line x1="70" y1="145" x2="1602" y2="145" stroke="rgba(242,241,237,0.12)" stroke-width="1"/>
      <line x1="70" y1="840" x2="1602" y2="840" stroke="rgba(242,241,237,0.12)" stroke-width="1"/>
      <text x="70" y="870">SYS_ID: FQ-2026-X9</text>
      <text x="880" y="870" text-anchor="middle">FAROOQ // PRINCIPAL SYSTEMS ARCHITECT</text>
      <text x="1602" y="870" text-anchor="end">LOCATION: UTC+5 // GLOBAL REMOTE</text>
    </g>
  </svg>